<svg xmlns="http://www.w3.org/2000/svg" version="1.1" xmlns:xlink="http://www.w3.org/1999/xlink" xmlns:svgjs="http://svgjs.dev/svgjs" width="2000" height="1247" viewBox="0 0 2000 1247"><g transform="matrix(1,0,0,1,-1.2121212121212466,0.504858299595071)"><svg viewBox="0 0 396 247" data-background-color="#000000" preserveAspectRatio="xMidYMid meet" height="1247" width="2000" xmlns="http://www.w3.org/2000/svg" xmlns:xlink="http://www.w3.org/1999/xlink"><g id="tight-bounds" transform="matrix(1,0,0,1,0.2400000000000091,-0.09999999999999432)"><svg viewBox="0 0 395.52 247.2" height="247.2" width="395.52"><g><svg></svg></g><g><svg viewBox="0 0 395.52 247.2" height="247.2" width="395.52"><g transform="matrix(1,0,0,1,148.21900114285714,47.215199999999996)"><svg viewBox="0 0 99.08199771428572 152.7696" height="152.7696" width="99.08199771428572"><g><svg viewBox="0 0 99.08199771428572 152.7696" height="152.7696" width="99.08199771428572"><g><svg viewBox="0 0 99.08199771428572 152.7696" height="152.7696" width="99.08199771428572"><g><svg viewBox="0 0 99.08199771428572 152.7696" height="152.7696" width="99.08199771428572"><g id="textblocktransform"><svg viewBox="0 0 99.08199771428572 152.7696" height="152.7696" width="99.08199771428572" id="textblock"><g><svg viewBox="0 0 99.08199771428572 152.7696" height="152.7696" width="99.08199771428572"><g transform="matrix(1,0,0,1,0,0)"><svg width="99.08199771428572" viewBox="4.1 -35 22.699999999999996 35" height="152.7696" data-palette-color="#ffffff"><path d="M23.1-34.65Q23.35-35 23.7-35L23.7-35 26.3-35Q26.8-35 26.8-34.5L26.8-34.5 26.8-0.5Q26.8 0 26.3 0L26.3 0 23.75 0Q23.25 0 23.25-0.5L23.25-0.5 23.25-27.7Q23.25-27.85 23.15-27.9 23.05-27.95 23-27.8L23-27.8 16.35-16.25Q16.1-15.9 15.75-15.9L15.75-15.9 15.2-15.9Q14.85-15.9 14.6-16.25L14.6-16.25 7.9-27.75Q7.85-27.9 7.75-27.85 7.65-27.8 7.65-27.65L7.65-27.65 7.65-0.5Q7.65 0 7.15 0L7.15 0 4.6 0Q4.1 0 4.1-0.5L4.1-0.5 4.1-34.5Q4.1-35 4.6-35L4.6-35 7.2-35Q7.55-35 7.8-34.65L7.8-34.65 15.35-21.8Q15.4-21.75 15.5-21.75 15.6-21.75 15.65-21.8L15.65-21.8 23.1-34.65Z" opacity="1" transform="matrix(1,0,0,1,0,0)" fill="#ffffff" class="wordmark-text-0" data-fill-palette-color="primary" id="text-0"></path></svg></g></svg></g></svg></g></svg></g></svg></g></svg></g></svg></g><path d="M330.52 41.215L330.52 0 83.32 0 83.32 247.2 330.52 247.2 330.52 205.985 316.743 205.985 316.743 233.423 97.097 233.423 97.097 13.777 316.743 13.777 316.743 41.215Z" fill="#ffffff" stroke="transparent" data-fill-palette-color="primary"></path></svg></g><defs></defs></svg><rect width="395.52" height="247.2" fill="none" stroke="none" visibility="hidden"></rect></g></svg></g></svg>